<svg id="Capa_1" enable-background="new 0 0 497 497" height="512" viewBox="0 0 497 497" width="512" xmlns="http://www.w3.org/2000/svg"><g><path d="m21.68 41.108c0 12.775-4.388 22.227-10.917 29.221-4.764 5.104-3.953 13.229 1.564 17.508 12.244 9.496 35.583 20.952 71.276 12.029l35.178-55.757c-21.32-59.135-97.101-52.878-97.101-3.001z" fill="#fbc072"/><path d="m151.426 41.6c-14.748-14.754-38.832-14.289-52.96 1.06-9.99 10.854-18.997 22.626-26.876 35.177-9.118 14.523-7.021 33.416 5.104 45.541l7.291 7.291z" fill="#b08bd7"/><path d="m454.996 386.82c11.56 52.71-83.05 74.38-83.05 74.38h-193.6s-94.61-21.67-83.05-74.38c17.33-80.16-25.31-67.89-25.31-181.66 0-26.26 4.96-51.39 14-74.49 13.9-35.57 37.46-66.34 67.44-89.07 34.41-26.1 77.29-41.6 123.72-41.6 113.13 0 205.16 92.03 205.16 205.16 0 113.77-42.64 101.5-25.31 181.66z" fill="#fccb88"/><path d="m133.227 175.218c0-60.46 31.344-116.557 71.706-162.844-19.361 7.073-37.366 16.983-53.507 29.226-29.98 22.73-53.54 53.5-67.44 89.07-9.04 23.1-14 48.23-14 74.49 0 113.77 42.64 101.5 25.31 181.66-11.56 52.71 83.05 74.38 83.05 74.38h174.996c-123.556-14.204-220.115-136.814-220.115-285.982z" fill="#fbc072"/><path d="m393.937 399.319s34.948 30.944 34.948 97.681h-70.35l-19.602-66.736z" fill="#b08bd7"/><path d="m237.674 497h74.944l26.315-66.736-26.315-94.891h-74.944l-26.315 94.891z" fill="#ffb5ec"/><path d="m156.355 399.319s-34.948 30.944-34.948 97.681h70.35l19.602-66.736z" fill="#b08bd7"/><path d="m393.937 399.319-55.004 30.944 19.603 66.737h30c0-30.695 13.199-56.328 23.849-72.014-9.05-17.321-18.448-25.667-18.448-25.667z" fill="#a47cd1"/><path d="m391.891 368.764-33.392-33.392h-45.881v161.628h45.918c0-44.138 20.979-78.958 35.402-97.681 7.107-9.227 6.189-22.319-2.047-30.555z" fill="#50e1cd"/><path d="m137.907 424.985c10.65 15.687 23.849 41.319 23.849 72.015h30l19.602-66.736-55.004-30.944c.001-.001-9.397 8.345-18.447 25.665z" fill="#a47cd1"/><path d="m158.401 368.764 33.392-33.392h45.881v161.628h-45.918c0-44.138-20.979-78.958-35.402-97.681-7.107-9.227-6.189-22.319 2.047-30.555z" fill="#50e1cd"/><g><circle cx="444.042" cy="225.149" fill="#ffcabd" r="45.32"/></g><path d="m444.042 205.16c0-.08 0-.16 0-.242v.203c-.006-25.057-5.472-48.835-15.269-70.215-7.662-16.722-26.138-25.673-43.972-21.17-32.063 8.095-69.57 12.749-109.655 12.749-40.088 0-77.597-4.654-109.663-12.751-17.645-4.456-36.116 4.184-43.749 20.705-9.936 21.509-15.483 45.461-15.485 70.71-.006 92.434 75.274 168.266 167.706 168.903 93.812.646 170.065-75.196 170.085-168.853v.203c.002-.082.002-.162.002-.242z" fill="#ffd8d2"/><path d="m180.159 344.623c-29.503-47.504-46.932-106.054-46.932-169.405 0-20.736 3.693-40.957 10.165-60.446-9.319 3.303-17.276 10.182-21.657 19.667-6.556 14.191-11.186 29.45-13.588 45.439-.619-.027-1.244-.049-1.897-.049-25.029 0-45.32 20.291-45.32 45.32s20.291 45.32 45.32 45.32c5.023 0 9.036-.83 12.264-2.338 12.611 31.126 34.247 57.734 61.645 76.492z" fill="#ffcabd"/><g><g><g><ellipse cx="168.954" cy="240.817" fill="#ff9db0" rx="39.183" ry="31.203"/></g><g><ellipse cx="381.338" cy="240.817" fill="#ff9db0" rx="39.183" ry="31.203"/></g></g></g><g><g><path d="m191.79 218.28c-4.142 0-7.5-3.357-7.5-7.5v-16.018c0-4.143 3.358-7.5 7.5-7.5s7.5 3.357 7.5 7.5v16.018c0 4.143-3.358 7.5-7.5 7.5z" fill="#423e4f"/></g><g><path d="m358.502 218.28c-4.142 0-7.5-3.357-7.5-7.5v-16.018c0-4.143 3.358-7.5 7.5-7.5s7.5 3.357 7.5 7.5v16.018c0 4.143-3.358 7.5-7.5 7.5z" fill="#423e4f"/></g><g><path d="m275.146 227.814c-10.59 0-20.662-4.587-27.63-12.585-2.721-3.122-2.396-7.86.727-10.581 3.123-2.722 7.86-2.396 10.582.728 4.12 4.728 10.069 7.438 16.322 7.438s12.202-2.712 16.322-7.439c2.722-3.123 7.459-3.448 10.582-.727 3.123 2.722 3.448 7.459.727 10.582-6.971 7.997-17.042 12.584-27.632 12.584z" fill="#423e4f"/></g></g></g></svg>